<svg xmlns="http://www.w3.org/2000/svg" xmlns:xlink="http://www.w3.org/1999/xlink" version="1.1" id="icon-jvk-creative" x="0px" y="0px" viewBox="0 0 40 40" enable-background="new 0 0 40 40" xml:space="preserve"><g><path fill="#FFFFFF" d="M39.4 26.8l0.5 0l-9.5-13.2l8.3-10h-0.5L24.7 20V3.7h-0.4v16.8l-4.8 5.7l-3.8-4.5c0.4-0.9 0.6-1.9 0.6-2.9 V3.7H0.2h0H0l15.3 18.1c-1.2 2.6-4 4.6-6.9 4.6c-4 0-7.6-3.6-7.6-7.6H0.4c0 4.2 3.8 8 8 8c3 0 5.9-2 7.2-4.7l4 4.7l4.7-5.7v5.7h0.4 v-6.2l5.6-6.7L39.4 26.8z M0.8 4.1H16v14.7c0 0.9-0.2 1.8-0.5 2.6L0.8 4.1z"/><g><path fill="#FFFFFF" d="M4.9 32.2l-0.4 0.3C4.3 32.2 4 32 3.7 31.8c-0.3-0.1-0.6-0.2-1-0.2c-0.4 0-0.8 0.1-1.1 0.3 S1 32.4 0.9 32.7c-0.2 0.3-0.3 0.7-0.3 1.1c0 0.6 0.2 1.1 0.6 1.5c0.4 0.4 0.9 0.6 1.6 0.6c0.7 0 1.3-0.3 1.7-0.8l0.4 0.3 c-0.2 0.3-0.6 0.6-0.9 0.7s-0.8 0.3-1.2 0.3c-0.9 0-1.5-0.3-2-0.9c-0.4-0.5-0.6-1.1-0.6-1.8c0-0.7 0.3-1.3 0.8-1.8 c0.5-0.5 1.1-0.7 1.9-0.7c0.5 0 0.9 0.1 1.2 0.3S4.6 31.9 4.9 32.2z"/><path fill="#FFFFFF" d="M7.3 31.3h1c0.5 0 0.9 0 1.1 0.1c0.3 0.1 0.5 0.2 0.7 0.4s0.3 0.5 0.3 0.8c0 0.3-0.1 0.5-0.2 0.7 c-0.1 0.2-0.3 0.4-0.5 0.5c-0.2 0.1-0.6 0.2-1 0.2l1.8 2.3H9.8L8 33.9H7.8v2.3H7.3V31.3z M7.8 31.8v1.7l0.9 0c0.3 0 0.6 0 0.7-0.1 s0.3-0.2 0.4-0.3c0.1-0.1 0.1-0.3 0.1-0.5c0-0.2 0-0.3-0.1-0.5c-0.1-0.1-0.2-0.2-0.4-0.3c-0.1-0.1-0.4-0.1-0.7-0.1H7.8z"/><path fill="#FFFFFF" d="M12.8 31.3h2.8v0.5h-2.3v1.5h2.3v0.5h-2.3v1.9h2.3v0.5h-2.8V31.3z"/><path fill="#FFFFFF" d="M19.9 31.3l2.3 4.9h-0.5l-0.8-1.6h-2.1L18 36.2h-0.6l2.3-4.9H19.9z M19.8 32.3L19 34.1h1.7L19.8 32.3z"/><path fill="#FFFFFF" d="M23.3 31.8v-0.5H26v0.5h-1.1v4.5h-0.5v-4.5H23.3z"/><path fill="#FFFFFF" d="M28 31.3h0.5v4.9H28V31.3z"/><path fill="#FFFFFF" d="M30.6 31.3h0.5l1.6 3.8l1.7-3.8H35l-2.1 4.9h-0.1L30.6 31.3z"/><path fill="#FFFFFF" d="M37.2 31.3H40v0.5h-2.3v1.5H40v0.5h-2.3v1.9H40v0.5h-2.8V31.3z"/></g></g></svg>